<mxfile host="app.diagrams.net" agent="Mozilla/5.0 (Windows NT 10.0; Win64; x64) AppleWebKit/537.36 (KHTML, like Gecko) Chrome/136.0.0.0 Safari/537.36" version="27.0.9">
  <diagram name="PÃ¡gina-1" id="N-i5f8-r76NyVRGnc-xn">
    <mxGraphModel dx="5043" dy="-149" grid="1" gridSize="10" guides="1" tooltips="1" connect="1" arrows="1" fold="1" page="1" pageScale="1" pageWidth="827" pageHeight="1169" math="0" shadow="0">
      <root>
        <mxCell id="0" />
        <mxCell id="1" parent="0" />
        <mxCell id="Qqh80IMA2MNL4-B3lv8G-23" value="Categorias_Producto" style="whiteSpace=wrap;html=1;align=center;" parent="1" vertex="1">
          <mxGeometry x="-1116.5" y="2117.3599999999997" width="130" height="40" as="geometry" />
        </mxCell>
        <mxCell id="Qqh80IMA2MNL4-B3lv8G-24" value="id_categoria" style="ellipse;whiteSpace=wrap;html=1;align=center;fontStyle=4;" parent="1" vertex="1">
          <mxGeometry x="-1204.5" y="2190.08" width="100" height="40" as="geometry" />
        </mxCell>
        <mxCell id="Qqh80IMA2MNL4-B3lv8G-25" value="nombre" style="ellipse;whiteSpace=wrap;html=1;align=center;" parent="1" vertex="1">
          <mxGeometry x="-998.5" y="2190.08" width="70" height="40" as="geometry" />
        </mxCell>
        <mxCell id="Qqh80IMA2MNL4-B3lv8G-26" value="descripcion" style="ellipse;whiteSpace=wrap;html=1;align=center;" parent="1" vertex="1">
          <mxGeometry x="-1094.5" y="2190.08" width="86" height="40" as="geometry" />
        </mxCell>
        <mxCell id="Qqh80IMA2MNL4-B3lv8G-29" value="" style="endArrow=none;html=1;rounded=0;exitX=0.5;exitY=0;exitDx=0;exitDy=0;entryX=0.5;entryY=1;entryDx=0;entryDy=0;" parent="1" source="Qqh80IMA2MNL4-B3lv8G-24" target="Qqh80IMA2MNL4-B3lv8G-23" edge="1">
          <mxGeometry relative="1" as="geometry">
            <mxPoint x="-1167.5" y="2170.08" as="sourcePoint" />
            <mxPoint x="-917.5" y="2240.08" as="targetPoint" />
            <Array as="points">
              <mxPoint x="-1154.5" y="2180.08" />
            </Array>
          </mxGeometry>
        </mxCell>
        <mxCell id="Qqh80IMA2MNL4-B3lv8G-30" value="" style="endArrow=none;html=1;rounded=0;entryX=0.5;entryY=1;entryDx=0;entryDy=0;exitX=0.5;exitY=0;exitDx=0;exitDy=0;" parent="1" source="Qqh80IMA2MNL4-B3lv8G-25" target="Qqh80IMA2MNL4-B3lv8G-23" edge="1">
          <mxGeometry relative="1" as="geometry">
            <mxPoint x="-817.5" y="2100.08" as="sourcePoint" />
            <mxPoint x="-927.5" y="2240.08" as="targetPoint" />
            <Array as="points">
              <mxPoint x="-963.5" y="2180.08" />
            </Array>
          </mxGeometry>
        </mxCell>
        <mxCell id="Qqh80IMA2MNL4-B3lv8G-31" value="" style="endArrow=none;html=1;rounded=0;exitX=0.5;exitY=0;exitDx=0;exitDy=0;entryX=0.5;entryY=1;entryDx=0;entryDy=0;" parent="1" source="Qqh80IMA2MNL4-B3lv8G-26" target="Qqh80IMA2MNL4-B3lv8G-23" edge="1">
          <mxGeometry relative="1" as="geometry">
            <mxPoint x="-1067.5" y="2090.08" as="sourcePoint" />
            <mxPoint x="-1017.5" y="2160.08" as="targetPoint" />
          </mxGeometry>
        </mxCell>
        <mxCell id="Qqh80IMA2MNL4-B3lv8G-94" value="Tipos_Producto" style="whiteSpace=wrap;html=1;align=center;" parent="1" vertex="1">
          <mxGeometry x="-1412.5" y="2120.08" width="130" height="40" as="geometry" />
        </mxCell>
        <mxCell id="Qqh80IMA2MNL4-B3lv8G-95" value="id_tipo_producto" style="ellipse;whiteSpace=wrap;html=1;align=center;fontStyle=4;" parent="1" vertex="1">
          <mxGeometry x="-1502.5" y="2190.08" width="100" height="40" as="geometry" />
        </mxCell>
        <mxCell id="Qqh80IMA2MNL4-B3lv8G-96" value="nombre" style="ellipse;whiteSpace=wrap;html=1;align=center;" parent="1" vertex="1">
          <mxGeometry x="-1292.5" y="2190.08" width="71" height="40" as="geometry" />
        </mxCell>
        <mxCell id="Qqh80IMA2MNL4-B3lv8G-97" value="descripcion" style="ellipse;whiteSpace=wrap;html=1;align=center;" parent="1" vertex="1">
          <mxGeometry x="-1390.5" y="2190.08" width="86" height="40" as="geometry" />
        </mxCell>
        <mxCell id="Qqh80IMA2MNL4-B3lv8G-98" value="" style="endArrow=none;html=1;rounded=0;exitX=0.5;exitY=0;exitDx=0;exitDy=0;entryX=0.5;entryY=1;entryDx=0;entryDy=0;" parent="1" source="Qqh80IMA2MNL4-B3lv8G-95" target="Qqh80IMA2MNL4-B3lv8G-94" edge="1">
          <mxGeometry relative="1" as="geometry">
            <mxPoint x="-1512.5" y="2170.08" as="sourcePoint" />
            <mxPoint x="-1262.5" y="2240.08" as="targetPoint" />
            <Array as="points">
              <mxPoint x="-1452.5" y="2180.08" />
            </Array>
          </mxGeometry>
        </mxCell>
        <mxCell id="Qqh80IMA2MNL4-B3lv8G-99" value="" style="endArrow=none;html=1;rounded=0;entryX=0.5;entryY=1;entryDx=0;entryDy=0;exitX=0.5;exitY=0;exitDx=0;exitDy=0;" parent="1" source="Qqh80IMA2MNL4-B3lv8G-96" target="Qqh80IMA2MNL4-B3lv8G-94" edge="1">
          <mxGeometry relative="1" as="geometry">
            <mxPoint x="-1162.5" y="2100.08" as="sourcePoint" />
            <mxPoint x="-1272.5" y="2240.08" as="targetPoint" />
            <Array as="points">
              <mxPoint x="-1256.5" y="2180.08" />
            </Array>
          </mxGeometry>
        </mxCell>
        <mxCell id="Qqh80IMA2MNL4-B3lv8G-100" value="" style="endArrow=none;html=1;rounded=0;exitX=0.5;exitY=0;exitDx=0;exitDy=0;entryX=0.5;entryY=1;entryDx=0;entryDy=0;" parent="1" source="Qqh80IMA2MNL4-B3lv8G-97" target="Qqh80IMA2MNL4-B3lv8G-94" edge="1">
          <mxGeometry relative="1" as="geometry">
            <mxPoint x="-1412.5" y="2090.08" as="sourcePoint" />
            <mxPoint x="-1362.5" y="2160.08" as="targetPoint" />
          </mxGeometry>
        </mxCell>
        <mxCell id="Qqh80IMA2MNL4-B3lv8G-146" value="PERTENECER" style="shape=rhombus;perimeter=rhombusPerimeter;whiteSpace=wrap;html=1;align=center;" parent="1" vertex="1">
          <mxGeometry x="-1400" y="2037" width="105" height="70" as="geometry" />
        </mxCell>
        <mxCell id="Qqh80IMA2MNL4-B3lv8G-147" value="" style="endArrow=none;html=1;rounded=0;entryX=0.5;entryY=0;entryDx=0;entryDy=0;exitX=0.5;exitY=1;exitDx=0;exitDy=0;" parent="1" source="Qqh80IMA2MNL4-B3lv8G-146" target="Qqh80IMA2MNL4-B3lv8G-94" edge="1">
          <mxGeometry relative="1" as="geometry">
            <mxPoint x="-1641" y="2160" as="sourcePoint" />
            <mxPoint x="-1631" y="1820" as="targetPoint" />
          </mxGeometry>
        </mxCell>
        <mxCell id="Qqh80IMA2MNL4-B3lv8G-148" value="1" style="resizable=0;html=1;whiteSpace=wrap;align=right;verticalAlign=bottom;" parent="Qqh80IMA2MNL4-B3lv8G-147" connectable="0" vertex="1">
          <mxGeometry x="1" relative="1" as="geometry">
            <mxPoint x="15" as="offset" />
          </mxGeometry>
        </mxCell>
        <mxCell id="Qqh80IMA2MNL4-B3lv8G-149" value="" style="endArrow=none;html=1;rounded=0;entryX=0.5;entryY=1;entryDx=0;entryDy=0;exitX=0.5;exitY=0;exitDx=0;exitDy=0;" parent="1" source="Qqh80IMA2MNL4-B3lv8G-146" target="0VB6fofLDIln-RIYnoBp-173" edge="1">
          <mxGeometry relative="1" as="geometry">
            <mxPoint x="-1431" y="1770" as="sourcePoint" />
            <mxPoint x="-1681" y="2110" as="targetPoint" />
            <Array as="points">
              <mxPoint x="-1347" y="2000" />
            </Array>
          </mxGeometry>
        </mxCell>
        <mxCell id="Qqh80IMA2MNL4-B3lv8G-150" value="N" style="resizable=0;html=1;whiteSpace=wrap;align=right;verticalAlign=bottom;" parent="Qqh80IMA2MNL4-B3lv8G-149" connectable="0" vertex="1">
          <mxGeometry x="1" relative="1" as="geometry">
            <mxPoint x="-55" y="50" as="offset" />
          </mxGeometry>
        </mxCell>
        <mxCell id="0VB6fofLDIln-RIYnoBp-1" value="Clientes" style="whiteSpace=wrap;html=1;align=center;" parent="1" vertex="1">
          <mxGeometry x="-1901.5" y="1450" width="90" height="40" as="geometry" />
        </mxCell>
        <mxCell id="0VB6fofLDIln-RIYnoBp-2" value="" style="endArrow=none;html=1;rounded=0;entryX=0.5;entryY=1;entryDx=0;entryDy=0;exitX=0.5;exitY=0;exitDx=0;exitDy=0;" parent="1" source="0VB6fofLDIln-RIYnoBp-4" target="0VB6fofLDIln-RIYnoBp-1" edge="1">
          <mxGeometry relative="1" as="geometry">
            <mxPoint x="-1856.5" y="1530" as="sourcePoint" />
            <mxPoint x="-1852.33" y="1490" as="targetPoint" />
            <Array as="points" />
          </mxGeometry>
        </mxCell>
        <mxCell id="0VB6fofLDIln-RIYnoBp-3" value="1" style="resizable=0;html=1;whiteSpace=wrap;align=right;verticalAlign=bottom;" parent="0VB6fofLDIln-RIYnoBp-2" connectable="0" vertex="1">
          <mxGeometry x="1" relative="1" as="geometry">
            <mxPoint y="20" as="offset" />
          </mxGeometry>
        </mxCell>
        <mxCell id="0VB6fofLDIln-RIYnoBp-4" value="REALIZAR" style="shape=rhombus;perimeter=rhombusPerimeter;whiteSpace=wrap;html=1;align=center;" parent="1" vertex="1">
          <mxGeometry x="-1901.5" y="1550" width="90" height="60" as="geometry" />
        </mxCell>
        <mxCell id="0VB6fofLDIln-RIYnoBp-5" value="" style="endArrow=none;html=1;rounded=0;exitX=0.5;exitY=1;exitDx=0;exitDy=0;entryX=0.5;entryY=0;entryDx=0;entryDy=0;" parent="1" source="0VB6fofLDIln-RIYnoBp-4" target="0VB6fofLDIln-RIYnoBp-7" edge="1">
          <mxGeometry relative="1" as="geometry">
            <mxPoint x="-1971.5" y="1800" as="sourcePoint" />
            <mxPoint x="-1856.5" y="1660" as="targetPoint" />
            <Array as="points" />
          </mxGeometry>
        </mxCell>
        <mxCell id="0VB6fofLDIln-RIYnoBp-6" value="N" style="resizable=0;html=1;whiteSpace=wrap;align=right;verticalAlign=bottom;" parent="0VB6fofLDIln-RIYnoBp-5" connectable="0" vertex="1">
          <mxGeometry x="1" relative="1" as="geometry">
            <mxPoint as="offset" />
          </mxGeometry>
        </mxCell>
        <mxCell id="0VB6fofLDIln-RIYnoBp-7" value="Sugerencias" style="whiteSpace=wrap;html=1;align=center;" parent="1" vertex="1">
          <mxGeometry x="-1921.5" y="1650" width="130" height="40" as="geometry" />
        </mxCell>
        <mxCell id="0VB6fofLDIln-RIYnoBp-18" value="id_reclamo" style="ellipse;whiteSpace=wrap;html=1;align=center;fontStyle=4;" parent="1" vertex="1">
          <mxGeometry x="-2121.5" y="1740" width="100" height="40" as="geometry" />
        </mxCell>
        <mxCell id="0VB6fofLDIln-RIYnoBp-19" value="fecha" style="ellipse;whiteSpace=wrap;html=1;align=center;" parent="1" vertex="1">
          <mxGeometry x="-2011.5" y="1740" width="100" height="40" as="geometry" />
        </mxCell>
        <mxCell id="0VB6fofLDIln-RIYnoBp-20" value="tipo_reclamo" style="ellipse;whiteSpace=wrap;html=1;align=center;" parent="1" vertex="1">
          <mxGeometry x="-1801.5" y="1740" width="100" height="40" as="geometry" />
        </mxCell>
        <mxCell id="0VB6fofLDIln-RIYnoBp-21" value="descripcion" style="ellipse;whiteSpace=wrap;html=1;align=center;" parent="1" vertex="1">
          <mxGeometry x="-1906.5" y="1740" width="100" height="40" as="geometry" />
        </mxCell>
        <mxCell id="0VB6fofLDIln-RIYnoBp-22" value="estado" style="ellipse;whiteSpace=wrap;html=1;align=center;" parent="1" vertex="1">
          <mxGeometry x="-1691.5" y="1740" width="100" height="40" as="geometry" />
        </mxCell>
        <mxCell id="0VB6fofLDIln-RIYnoBp-23" value="" style="endArrow=none;html=1;rounded=0;exitX=0.5;exitY=0;exitDx=0;exitDy=0;entryX=0.5;entryY=1;entryDx=0;entryDy=0;" parent="1" source="0VB6fofLDIln-RIYnoBp-18" target="0VB6fofLDIln-RIYnoBp-7" edge="1">
          <mxGeometry relative="1" as="geometry">
            <mxPoint x="-2041.5" y="1740" as="sourcePoint" />
            <mxPoint x="-1806.5" y="1720" as="targetPoint" />
            <Array as="points">
              <mxPoint x="-2071.5" y="1720" />
            </Array>
          </mxGeometry>
        </mxCell>
        <mxCell id="0VB6fofLDIln-RIYnoBp-24" value="" style="endArrow=none;html=1;rounded=0;exitX=0.5;exitY=0;exitDx=0;exitDy=0;entryX=0.5;entryY=1;entryDx=0;entryDy=0;" parent="1" source="0VB6fofLDIln-RIYnoBp-19" target="0VB6fofLDIln-RIYnoBp-7" edge="1">
          <mxGeometry relative="1" as="geometry">
            <mxPoint x="-1941.5" y="1600" as="sourcePoint" />
            <mxPoint x="-1806.5" y="1720" as="targetPoint" />
            <Array as="points">
              <mxPoint x="-1961.5" y="1720" />
            </Array>
          </mxGeometry>
        </mxCell>
        <mxCell id="0VB6fofLDIln-RIYnoBp-25" value="" style="endArrow=none;html=1;rounded=0;exitX=0.5;exitY=0;exitDx=0;exitDy=0;entryX=0.5;entryY=1;entryDx=0;entryDy=0;" parent="1" source="0VB6fofLDIln-RIYnoBp-20" target="0VB6fofLDIln-RIYnoBp-7" edge="1">
          <mxGeometry relative="1" as="geometry">
            <mxPoint x="-1941.5" y="1660" as="sourcePoint" />
            <mxPoint x="-1806.5" y="1720" as="targetPoint" />
            <Array as="points">
              <mxPoint x="-1751.5" y="1720" />
            </Array>
          </mxGeometry>
        </mxCell>
        <mxCell id="0VB6fofLDIln-RIYnoBp-26" value="" style="endArrow=none;html=1;rounded=0;exitX=0.5;exitY=0;exitDx=0;exitDy=0;entryX=0.5;entryY=1;entryDx=0;entryDy=0;" parent="1" source="0VB6fofLDIln-RIYnoBp-21" target="0VB6fofLDIln-RIYnoBp-7" edge="1">
          <mxGeometry relative="1" as="geometry">
            <mxPoint x="-1941.5" y="1720" as="sourcePoint" />
            <mxPoint x="-1806.5" y="1720" as="targetPoint" />
            <Array as="points" />
          </mxGeometry>
        </mxCell>
        <mxCell id="0VB6fofLDIln-RIYnoBp-27" value="" style="endArrow=none;html=1;rounded=0;exitX=0.5;exitY=0;exitDx=0;exitDy=0;entryX=0.5;entryY=1;entryDx=0;entryDy=0;" parent="1" source="0VB6fofLDIln-RIYnoBp-22" target="0VB6fofLDIln-RIYnoBp-7" edge="1">
          <mxGeometry relative="1" as="geometry">
            <mxPoint x="-1941.5" y="1780" as="sourcePoint" />
            <mxPoint x="-1806.5" y="1720" as="targetPoint" />
            <Array as="points">
              <mxPoint x="-1641.5" y="1720" />
            </Array>
          </mxGeometry>
        </mxCell>
        <mxCell id="0VB6fofLDIln-RIYnoBp-28" value="id_cliente" style="ellipse;whiteSpace=wrap;html=1;align=center;fontStyle=4;" parent="1" vertex="1">
          <mxGeometry x="-2221.5" y="1540" width="100" height="40" as="geometry" />
        </mxCell>
        <mxCell id="0VB6fofLDIln-RIYnoBp-29" value="nombre" style="ellipse;whiteSpace=wrap;html=1;align=center;" parent="1" vertex="1">
          <mxGeometry x="-2001.5" y="1540" width="100" height="40" as="geometry" />
        </mxCell>
        <mxCell id="0VB6fofLDIln-RIYnoBp-30" value="cedula" style="ellipse;whiteSpace=wrap;html=1;align=center;" parent="1" vertex="1">
          <mxGeometry x="-1811.5" y="1540" width="100" height="40" as="geometry" />
        </mxCell>
        <mxCell id="0VB6fofLDIln-RIYnoBp-31" value="telefono" style="ellipse;whiteSpace=wrap;html=1;align=center;" parent="1" vertex="1">
          <mxGeometry x="-1701.5" y="1540" width="100" height="40" as="geometry" />
        </mxCell>
        <mxCell id="0VB6fofLDIln-RIYnoBp-32" value="correo" style="ellipse;whiteSpace=wrap;html=1;align=center;" parent="1" vertex="1">
          <mxGeometry x="-2111.5" y="1540" width="100" height="40" as="geometry" />
        </mxCell>
        <mxCell id="0VB6fofLDIln-RIYnoBp-33" value="" style="endArrow=none;html=1;rounded=0;exitX=0.5;exitY=0;exitDx=0;exitDy=0;entryX=0.5;entryY=1;entryDx=0;entryDy=0;" parent="1" source="0VB6fofLDIln-RIYnoBp-28" target="0VB6fofLDIln-RIYnoBp-1" edge="1">
          <mxGeometry relative="1" as="geometry">
            <mxPoint x="-1651.5" y="1540" as="sourcePoint" />
            <mxPoint x="-1511.5" y="1520" as="targetPoint" />
            <Array as="points">
              <mxPoint x="-2171.5" y="1520" />
            </Array>
          </mxGeometry>
        </mxCell>
        <mxCell id="0VB6fofLDIln-RIYnoBp-34" value="" style="endArrow=none;html=1;rounded=0;exitX=0.5;exitY=0;exitDx=0;exitDy=0;entryX=0.5;entryY=1;entryDx=0;entryDy=0;" parent="1" source="0VB6fofLDIln-RIYnoBp-29" target="0VB6fofLDIln-RIYnoBp-1" edge="1">
          <mxGeometry relative="1" as="geometry">
            <mxPoint x="-1551.5" y="1400" as="sourcePoint" />
            <mxPoint x="-1511.5" y="1520" as="targetPoint" />
            <Array as="points">
              <mxPoint x="-1951.5" y="1520" />
            </Array>
          </mxGeometry>
        </mxCell>
        <mxCell id="0VB6fofLDIln-RIYnoBp-35" value="" style="endArrow=none;html=1;rounded=0;exitX=0.5;exitY=0;exitDx=0;exitDy=0;entryX=0.5;entryY=1;entryDx=0;entryDy=0;" parent="1" source="0VB6fofLDIln-RIYnoBp-30" target="0VB6fofLDIln-RIYnoBp-1" edge="1">
          <mxGeometry relative="1" as="geometry">
            <mxPoint x="-1551.5" y="1460" as="sourcePoint" />
            <mxPoint x="-1511.5" y="1520" as="targetPoint" />
            <Array as="points">
              <mxPoint x="-1761.5" y="1520" />
            </Array>
          </mxGeometry>
        </mxCell>
        <mxCell id="0VB6fofLDIln-RIYnoBp-36" value="" style="endArrow=none;html=1;rounded=0;exitX=0.5;exitY=0;exitDx=0;exitDy=0;entryX=0.5;entryY=1;entryDx=0;entryDy=0;" parent="1" source="0VB6fofLDIln-RIYnoBp-31" target="0VB6fofLDIln-RIYnoBp-1" edge="1">
          <mxGeometry relative="1" as="geometry">
            <mxPoint x="-1551.5" y="1520" as="sourcePoint" />
            <mxPoint x="-1511.5" y="1520" as="targetPoint" />
            <Array as="points">
              <mxPoint x="-1651.5" y="1520" />
            </Array>
          </mxGeometry>
        </mxCell>
        <mxCell id="0VB6fofLDIln-RIYnoBp-37" value="" style="endArrow=none;html=1;rounded=0;exitX=0.5;exitY=0;exitDx=0;exitDy=0;entryX=0.5;entryY=1;entryDx=0;entryDy=0;" parent="1" source="0VB6fofLDIln-RIYnoBp-32" target="0VB6fofLDIln-RIYnoBp-1" edge="1">
          <mxGeometry relative="1" as="geometry">
            <mxPoint x="-1551.5" y="1580" as="sourcePoint" />
            <mxPoint x="-1511.5" y="1520" as="targetPoint" />
            <Array as="points">
              <mxPoint x="-2061.5" y="1520" />
            </Array>
          </mxGeometry>
        </mxCell>
        <mxCell id="0VB6fofLDIln-RIYnoBp-39" value="Pedidos" style="whiteSpace=wrap;html=1;align=center;" parent="1" vertex="1">
          <mxGeometry x="-1401.5" y="1450" width="130" height="40" as="geometry" />
        </mxCell>
        <mxCell id="0VB6fofLDIln-RIYnoBp-40" value="id_pedido" style="ellipse;whiteSpace=wrap;html=1;align=center;fontStyle=4;" parent="1" vertex="1">
          <mxGeometry x="-1581.5" y="1550" width="100" height="40" as="geometry" />
        </mxCell>
        <mxCell id="0VB6fofLDIln-RIYnoBp-41" value="fecha" style="ellipse;whiteSpace=wrap;html=1;align=center;" parent="1" vertex="1">
          <mxGeometry x="-1476.5" y="1550" width="100" height="40" as="geometry" />
        </mxCell>
        <mxCell id="0VB6fofLDIln-RIYnoBp-42" value="forma_pago" style="ellipse;whiteSpace=wrap;html=1;align=center;" parent="1" vertex="1">
          <mxGeometry x="-1291.5" y="1550" width="100" height="40" as="geometry" />
        </mxCell>
        <mxCell id="0VB6fofLDIln-RIYnoBp-43" value="" style="endArrow=none;html=1;rounded=0;exitX=0.5;exitY=0;exitDx=0;exitDy=0;entryX=0.5;entryY=1;entryDx=0;entryDy=0;" parent="1" source="0VB6fofLDIln-RIYnoBp-40" target="0VB6fofLDIln-RIYnoBp-39" edge="1">
          <mxGeometry relative="1" as="geometry">
            <mxPoint x="-1651.83" y="1695" as="sourcePoint" />
            <mxPoint x="-1421.5" y="1670" as="targetPoint" />
            <Array as="points">
              <mxPoint x="-1531.5" y="1520" />
            </Array>
          </mxGeometry>
        </mxCell>
        <mxCell id="0VB6fofLDIln-RIYnoBp-44" value="" style="endArrow=none;html=1;rounded=0;entryX=0.5;entryY=1;entryDx=0;entryDy=0;exitX=0.5;exitY=0;exitDx=0;exitDy=0;" parent="1" source="0VB6fofLDIln-RIYnoBp-41" target="0VB6fofLDIln-RIYnoBp-39" edge="1">
          <mxGeometry relative="1" as="geometry">
            <mxPoint x="-1301.83" y="1625" as="sourcePoint" />
            <mxPoint x="-1421.5" y="1670" as="targetPoint" />
            <Array as="points">
              <mxPoint x="-1426.5" y="1530" />
            </Array>
          </mxGeometry>
        </mxCell>
        <mxCell id="0VB6fofLDIln-RIYnoBp-45" value="" style="endArrow=none;html=1;rounded=0;exitX=0.5;exitY=0;exitDx=0;exitDy=0;entryX=0.5;entryY=1;entryDx=0;entryDy=0;" parent="1" source="0VB6fofLDIln-RIYnoBp-42" target="0VB6fofLDIln-RIYnoBp-39" edge="1">
          <mxGeometry relative="1" as="geometry">
            <mxPoint x="-1551.83" y="1615" as="sourcePoint" />
            <mxPoint x="-1421.5" y="1670" as="targetPoint" />
            <Array as="points">
              <mxPoint x="-1241.5" y="1530" />
            </Array>
          </mxGeometry>
        </mxCell>
        <mxCell id="0VB6fofLDIln-RIYnoBp-46" value="total" style="ellipse;whiteSpace=wrap;html=1;align=center;" parent="1" vertex="1">
          <mxGeometry x="-1181.5" y="1550" width="81" height="40" as="geometry" />
        </mxCell>
        <mxCell id="0VB6fofLDIln-RIYnoBp-47" value="" style="endArrow=none;html=1;rounded=0;exitX=0.5;exitY=0;exitDx=0;exitDy=0;entryX=0.5;entryY=1;entryDx=0;entryDy=0;" parent="1" source="0VB6fofLDIln-RIYnoBp-46" target="0VB6fofLDIln-RIYnoBp-39" edge="1">
          <mxGeometry relative="1" as="geometry">
            <mxPoint x="-1331.83" y="1725" as="sourcePoint" />
            <mxPoint x="-1421.5" y="1670" as="targetPoint" />
            <Array as="points">
              <mxPoint x="-1140.5" y="1520" />
            </Array>
          </mxGeometry>
        </mxCell>
        <mxCell id="0VB6fofLDIln-RIYnoBp-50" value="REALIZAR" style="shape=rhombus;perimeter=rhombusPerimeter;whiteSpace=wrap;html=1;align=center;" parent="1" vertex="1">
          <mxGeometry x="-1661.5" y="1440" width="90" height="60" as="geometry" />
        </mxCell>
        <mxCell id="0VB6fofLDIln-RIYnoBp-51" value="" style="endArrow=none;html=1;rounded=0;entryX=1;entryY=0.5;entryDx=0;entryDy=0;exitX=0;exitY=0.5;exitDx=0;exitDy=0;" parent="1" source="0VB6fofLDIln-RIYnoBp-50" target="0VB6fofLDIln-RIYnoBp-1" edge="1">
          <mxGeometry relative="1" as="geometry">
            <mxPoint x="-1841.5" y="1550" as="sourcePoint" />
            <mxPoint x="-1841.5" y="1490" as="targetPoint" />
            <Array as="points" />
          </mxGeometry>
        </mxCell>
        <mxCell id="0VB6fofLDIln-RIYnoBp-52" value="1" style="resizable=0;html=1;whiteSpace=wrap;align=right;verticalAlign=bottom;" parent="0VB6fofLDIln-RIYnoBp-51" connectable="0" vertex="1">
          <mxGeometry x="1" relative="1" as="geometry">
            <mxPoint x="20" as="offset" />
          </mxGeometry>
        </mxCell>
        <mxCell id="0VB6fofLDIln-RIYnoBp-55" value="" style="endArrow=none;html=1;rounded=0;exitX=1;exitY=0.5;exitDx=0;exitDy=0;entryX=0;entryY=0.5;entryDx=0;entryDy=0;" parent="1" source="0VB6fofLDIln-RIYnoBp-50" target="0VB6fofLDIln-RIYnoBp-39" edge="1">
          <mxGeometry relative="1" as="geometry">
            <mxPoint x="-1411.5" y="1460" as="sourcePoint" />
            <mxPoint x="-1411.5" y="1500" as="targetPoint" />
            <Array as="points" />
          </mxGeometry>
        </mxCell>
        <mxCell id="0VB6fofLDIln-RIYnoBp-56" value="N" style="resizable=0;html=1;whiteSpace=wrap;align=right;verticalAlign=bottom;" parent="0VB6fofLDIln-RIYnoBp-55" connectable="0" vertex="1">
          <mxGeometry x="1" relative="1" as="geometry">
            <mxPoint x="-10" as="offset" />
          </mxGeometry>
        </mxCell>
        <mxCell id="0VB6fofLDIln-RIYnoBp-57" value="TIENEN" style="shape=rhombus;perimeter=rhombusPerimeter;whiteSpace=wrap;html=1;align=center;" parent="1" vertex="1">
          <mxGeometry x="-1381.5" y="1560" width="90" height="60" as="geometry" />
        </mxCell>
        <mxCell id="0VB6fofLDIln-RIYnoBp-58" value="" style="endArrow=none;html=1;rounded=0;entryX=0.5;entryY=1;entryDx=0;entryDy=0;exitX=0.5;exitY=0;exitDx=0;exitDy=0;" parent="1" source="0VB6fofLDIln-RIYnoBp-57" target="0VB6fofLDIln-RIYnoBp-39" edge="1">
          <mxGeometry relative="1" as="geometry">
            <mxPoint x="-1402.93" y="1670" as="sourcePoint" />
            <mxPoint x="-1402.93" y="1610" as="targetPoint" />
            <Array as="points" />
          </mxGeometry>
        </mxCell>
        <mxCell id="0VB6fofLDIln-RIYnoBp-59" value="1" style="resizable=0;html=1;whiteSpace=wrap;align=right;verticalAlign=bottom;" parent="0VB6fofLDIln-RIYnoBp-58" connectable="0" vertex="1">
          <mxGeometry x="1" relative="1" as="geometry">
            <mxPoint y="20" as="offset" />
          </mxGeometry>
        </mxCell>
        <mxCell id="0VB6fofLDIln-RIYnoBp-60" value="Detalles_Pedido" style="whiteSpace=wrap;html=1;align=center;" parent="1" vertex="1">
          <mxGeometry x="-1401.5" y="1660" width="130" height="40" as="geometry" />
        </mxCell>
        <mxCell id="0VB6fofLDIln-RIYnoBp-65" value="" style="endArrow=none;html=1;rounded=0;exitX=0.5;exitY=1;exitDx=0;exitDy=0;entryX=0.5;entryY=0;entryDx=0;entryDy=0;" parent="1" source="0VB6fofLDIln-RIYnoBp-57" target="0VB6fofLDIln-RIYnoBp-60" edge="1">
          <mxGeometry relative="1" as="geometry">
            <mxPoint x="-1492.93" y="1630" as="sourcePoint" />
            <mxPoint x="-1492.93" y="1670" as="targetPoint" />
            <Array as="points" />
          </mxGeometry>
        </mxCell>
        <mxCell id="0VB6fofLDIln-RIYnoBp-66" value="N" style="resizable=0;html=1;whiteSpace=wrap;align=right;verticalAlign=bottom;" parent="0VB6fofLDIln-RIYnoBp-65" connectable="0" vertex="1">
          <mxGeometry x="1" relative="1" as="geometry">
            <mxPoint as="offset" />
          </mxGeometry>
        </mxCell>
        <mxCell id="0VB6fofLDIln-RIYnoBp-74" value="id_detalle" style="ellipse;whiteSpace=wrap;html=1;align=center;fontStyle=4;" parent="1" vertex="1">
          <mxGeometry x="-1521.5" y="1740" width="100" height="40" as="geometry" />
        </mxCell>
        <mxCell id="0VB6fofLDIln-RIYnoBp-75" value="cantidad" style="ellipse;whiteSpace=wrap;html=1;align=center;" parent="1" vertex="1">
          <mxGeometry x="-1321.5" y="1740" width="100" height="40" as="geometry" />
        </mxCell>
        <mxCell id="0VB6fofLDIln-RIYnoBp-76" value="precio_compra" style="ellipse;whiteSpace=wrap;html=1;align=center;" parent="1" vertex="1">
          <mxGeometry x="-1211.5" y="1740" width="100" height="40" as="geometry" />
        </mxCell>
        <mxCell id="0VB6fofLDIln-RIYnoBp-77" value="" style="endArrow=none;html=1;rounded=0;exitX=0.5;exitY=0;exitDx=0;exitDy=0;entryX=0.5;entryY=1;entryDx=0;entryDy=0;" parent="1" source="0VB6fofLDIln-RIYnoBp-74" target="0VB6fofLDIln-RIYnoBp-60" edge="1">
          <mxGeometry relative="1" as="geometry">
            <mxPoint x="-1567.5" y="1830" as="sourcePoint" />
            <mxPoint x="-1341.5" y="1820" as="targetPoint" />
            <Array as="points">
              <mxPoint x="-1471.5" y="1710" />
            </Array>
          </mxGeometry>
        </mxCell>
        <mxCell id="0VB6fofLDIln-RIYnoBp-78" value="" style="endArrow=none;html=1;rounded=0;entryX=0.5;entryY=1;entryDx=0;entryDy=0;exitX=0.5;exitY=0;exitDx=0;exitDy=0;" parent="1" source="0VB6fofLDIln-RIYnoBp-75" target="0VB6fofLDIln-RIYnoBp-60" edge="1">
          <mxGeometry relative="1" as="geometry">
            <mxPoint x="-1217.5" y="1760" as="sourcePoint" />
            <mxPoint x="-1341.5" y="1820" as="targetPoint" />
            <Array as="points">
              <mxPoint x="-1271.5" y="1720" />
            </Array>
          </mxGeometry>
        </mxCell>
        <mxCell id="0VB6fofLDIln-RIYnoBp-79" value="" style="endArrow=none;html=1;rounded=0;exitX=0.5;exitY=0;exitDx=0;exitDy=0;entryX=0.5;entryY=1;entryDx=0;entryDy=0;" parent="1" source="0VB6fofLDIln-RIYnoBp-76" target="0VB6fofLDIln-RIYnoBp-60" edge="1">
          <mxGeometry relative="1" as="geometry">
            <mxPoint x="-1467.5" y="1750" as="sourcePoint" />
            <mxPoint x="-1341.5" y="1820" as="targetPoint" />
            <Array as="points">
              <mxPoint x="-1161.5" y="1710" />
            </Array>
          </mxGeometry>
        </mxCell>
        <mxCell id="0VB6fofLDIln-RIYnoBp-81" value="Empleados" style="whiteSpace=wrap;html=1;align=center;" parent="1" vertex="1">
          <mxGeometry x="-1711" y="1290" width="100" height="40" as="geometry" />
        </mxCell>
        <mxCell id="0VB6fofLDIln-RIYnoBp-82" value="ATIENDER" style="shape=rhombus;perimeter=rhombusPerimeter;whiteSpace=wrap;html=1;align=center;" parent="1" vertex="1">
          <mxGeometry x="-1381.5" y="1340" width="90" height="60" as="geometry" />
        </mxCell>
        <mxCell id="0VB6fofLDIln-RIYnoBp-83" value="id_empleado" style="ellipse;whiteSpace=wrap;html=1;align=center;fontStyle=4;" parent="1" vertex="1">
          <mxGeometry x="-1981" y="1190" width="100" height="40" as="geometry" />
        </mxCell>
        <mxCell id="0VB6fofLDIln-RIYnoBp-84" value="nombre" style="ellipse;whiteSpace=wrap;html=1;align=center;" parent="1" vertex="1">
          <mxGeometry x="-1871" y="1190" width="100" height="40" as="geometry" />
        </mxCell>
        <mxCell id="0VB6fofLDIln-RIYnoBp-85" value="cargo" style="ellipse;whiteSpace=wrap;html=1;align=center;" parent="1" vertex="1">
          <mxGeometry x="-1761" y="1190" width="100" height="40" as="geometry" />
        </mxCell>
        <mxCell id="0VB6fofLDIln-RIYnoBp-86" value="telefono" style="ellipse;whiteSpace=wrap;html=1;align=center;" parent="1" vertex="1">
          <mxGeometry x="-1651" y="1190" width="100" height="40" as="geometry" />
        </mxCell>
        <mxCell id="0VB6fofLDIln-RIYnoBp-87" value="salario" style="ellipse;whiteSpace=wrap;html=1;align=center;" parent="1" vertex="1">
          <mxGeometry x="-1541" y="1190" width="100" height="40" as="geometry" />
        </mxCell>
        <mxCell id="0VB6fofLDIln-RIYnoBp-88" value="" style="endArrow=none;html=1;rounded=0;exitX=0.5;exitY=1;exitDx=0;exitDy=0;entryX=0.5;entryY=0;entryDx=0;entryDy=0;" parent="1" source="0VB6fofLDIln-RIYnoBp-83" target="0VB6fofLDIln-RIYnoBp-81" edge="1">
          <mxGeometry relative="1" as="geometry">
            <mxPoint x="-2401" y="1840" as="sourcePoint" />
            <mxPoint x="-1831" y="1330" as="targetPoint" />
            <Array as="points">
              <mxPoint x="-1931" y="1250" />
            </Array>
          </mxGeometry>
        </mxCell>
        <mxCell id="0VB6fofLDIln-RIYnoBp-93" value="horario" style="ellipse;whiteSpace=wrap;html=1;align=center;" parent="1" vertex="1">
          <mxGeometry x="-1431" y="1190" width="100" height="40" as="geometry" />
        </mxCell>
        <mxCell id="0VB6fofLDIln-RIYnoBp-95" value="" style="endArrow=none;html=1;rounded=0;exitX=0.5;exitY=1;exitDx=0;exitDy=0;entryX=0.5;entryY=0;entryDx=0;entryDy=0;" parent="1" source="0VB6fofLDIln-RIYnoBp-84" target="0VB6fofLDIln-RIYnoBp-81" edge="1">
          <mxGeometry relative="1" as="geometry">
            <mxPoint x="-1891" y="1250" as="sourcePoint" />
            <mxPoint x="-1581" y="1290" as="targetPoint" />
            <Array as="points">
              <mxPoint x="-1821" y="1250" />
            </Array>
          </mxGeometry>
        </mxCell>
        <mxCell id="0VB6fofLDIln-RIYnoBp-96" value="" style="endArrow=none;html=1;rounded=0;exitX=0.5;exitY=1;exitDx=0;exitDy=0;entryX=0.5;entryY=0;entryDx=0;entryDy=0;" parent="1" source="0VB6fofLDIln-RIYnoBp-85" target="0VB6fofLDIln-RIYnoBp-81" edge="1">
          <mxGeometry relative="1" as="geometry">
            <mxPoint x="-1471" y="1350" as="sourcePoint" />
            <mxPoint x="-1161" y="1390" as="targetPoint" />
            <Array as="points">
              <mxPoint x="-1711" y="1250" />
            </Array>
          </mxGeometry>
        </mxCell>
        <mxCell id="0VB6fofLDIln-RIYnoBp-97" value="" style="endArrow=none;html=1;rounded=0;exitX=0.5;exitY=1;exitDx=0;exitDy=0;entryX=0.5;entryY=0;entryDx=0;entryDy=0;" parent="1" source="0VB6fofLDIln-RIYnoBp-86" target="0VB6fofLDIln-RIYnoBp-81" edge="1">
          <mxGeometry relative="1" as="geometry">
            <mxPoint x="-1691" y="1260" as="sourcePoint" />
            <mxPoint x="-1626" y="1310" as="targetPoint" />
            <Array as="points">
              <mxPoint x="-1601" y="1250" />
            </Array>
          </mxGeometry>
        </mxCell>
        <mxCell id="0VB6fofLDIln-RIYnoBp-98" value="" style="endArrow=none;html=1;rounded=0;exitX=0.5;exitY=1;exitDx=0;exitDy=0;entryX=0.5;entryY=0;entryDx=0;entryDy=0;" parent="1" source="0VB6fofLDIln-RIYnoBp-87" target="0VB6fofLDIln-RIYnoBp-81" edge="1">
          <mxGeometry relative="1" as="geometry">
            <mxPoint x="-1551" y="1260" as="sourcePoint" />
            <mxPoint x="-1611" y="1310" as="targetPoint" />
            <Array as="points">
              <mxPoint x="-1491" y="1250" />
            </Array>
          </mxGeometry>
        </mxCell>
        <mxCell id="0VB6fofLDIln-RIYnoBp-99" value="" style="endArrow=none;html=1;rounded=0;exitX=0.5;exitY=1;exitDx=0;exitDy=0;entryX=0.5;entryY=0;entryDx=0;entryDy=0;" parent="1" source="0VB6fofLDIln-RIYnoBp-93" target="0VB6fofLDIln-RIYnoBp-81" edge="1">
          <mxGeometry relative="1" as="geometry">
            <mxPoint x="-1342" y="1250" as="sourcePoint" />
            <mxPoint x="-1521" y="1300" as="targetPoint" />
            <Array as="points">
              <mxPoint x="-1381" y="1260" />
            </Array>
          </mxGeometry>
        </mxCell>
        <mxCell id="0VB6fofLDIln-RIYnoBp-173" value="Productos" style="whiteSpace=wrap;html=1;align=center;" parent="1" vertex="1">
          <mxGeometry x="-1326" y="1925" width="100" height="40" as="geometry" />
        </mxCell>
        <mxCell id="0VB6fofLDIln-RIYnoBp-174" value="id_producto" style="ellipse;whiteSpace=wrap;html=1;align=center;fontStyle=4;" parent="1" vertex="1">
          <mxGeometry x="-1630" y="2015" width="100" height="40" as="geometry" />
        </mxCell>
        <mxCell id="0VB6fofLDIln-RIYnoBp-175" value="nombre" style="ellipse;whiteSpace=wrap;html=1;align=center;" parent="1" vertex="1">
          <mxGeometry x="-986.5" y="2020" width="100" height="40" as="geometry" />
        </mxCell>
        <mxCell id="0VB6fofLDIln-RIYnoBp-176" value="cantidad" style="ellipse;whiteSpace=wrap;html=1;align=center;" parent="1" vertex="1">
          <mxGeometry x="-1502.5" y="2015" width="100" height="40" as="geometry" />
        </mxCell>
        <mxCell id="0VB6fofLDIln-RIYnoBp-177" value="tipo" style="ellipse;whiteSpace=wrap;html=1;align=center;" parent="1" vertex="1">
          <mxGeometry x="-1296" y="2015" width="84.5" height="40" as="geometry" />
        </mxCell>
        <mxCell id="0VB6fofLDIln-RIYnoBp-178" value="precio_unitario" style="ellipse;whiteSpace=wrap;html=1;align=center;" parent="1" vertex="1">
          <mxGeometry x="-1194.5" y="2015" width="100" height="40" as="geometry" />
        </mxCell>
        <mxCell id="0VB6fofLDIln-RIYnoBp-179" value="" style="endArrow=none;html=1;rounded=0;exitX=0.5;exitY=0;exitDx=0;exitDy=0;entryX=0.5;entryY=1;entryDx=0;entryDy=0;" parent="1" source="0VB6fofLDIln-RIYnoBp-174" target="0VB6fofLDIln-RIYnoBp-173" edge="1">
          <mxGeometry relative="1" as="geometry">
            <mxPoint x="-1281" y="2105" as="sourcePoint" />
            <mxPoint x="-1121" y="2105" as="targetPoint" />
            <Array as="points">
              <mxPoint x="-1580" y="1990" />
            </Array>
          </mxGeometry>
        </mxCell>
        <mxCell id="0VB6fofLDIln-RIYnoBp-180" value="" style="endArrow=none;html=1;rounded=0;exitX=0.5;exitY=0;exitDx=0;exitDy=0;entryX=0.5;entryY=1;entryDx=0;entryDy=0;" parent="1" source="0VB6fofLDIln-RIYnoBp-175" target="0VB6fofLDIln-RIYnoBp-173" edge="1">
          <mxGeometry relative="1" as="geometry">
            <mxPoint x="-1181" y="1965" as="sourcePoint" />
            <mxPoint x="-1131" y="2095" as="targetPoint" />
            <Array as="points">
              <mxPoint x="-936" y="1990" />
            </Array>
          </mxGeometry>
        </mxCell>
        <mxCell id="0VB6fofLDIln-RIYnoBp-181" value="" style="endArrow=none;html=1;rounded=0;exitX=0.5;exitY=0;exitDx=0;exitDy=0;entryX=0.5;entryY=1;entryDx=0;entryDy=0;" parent="1" source="0VB6fofLDIln-RIYnoBp-176" target="0VB6fofLDIln-RIYnoBp-173" edge="1">
          <mxGeometry relative="1" as="geometry">
            <mxPoint x="-1181" y="2025" as="sourcePoint" />
            <mxPoint x="-1131" y="2095" as="targetPoint" />
            <Array as="points">
              <mxPoint x="-1452" y="1995" />
            </Array>
          </mxGeometry>
        </mxCell>
        <mxCell id="0VB6fofLDIln-RIYnoBp-182" value="" style="endArrow=none;html=1;rounded=0;exitX=0.5;exitY=0;exitDx=0;exitDy=0;entryX=0.5;entryY=1;entryDx=0;entryDy=0;" parent="1" source="0VB6fofLDIln-RIYnoBp-177" target="0VB6fofLDIln-RIYnoBp-173" edge="1">
          <mxGeometry relative="1" as="geometry">
            <mxPoint x="-1181" y="2085" as="sourcePoint" />
            <mxPoint x="-1131" y="2095" as="targetPoint" />
            <Array as="points">
              <mxPoint x="-1254" y="2000" />
            </Array>
          </mxGeometry>
        </mxCell>
        <mxCell id="0VB6fofLDIln-RIYnoBp-183" value="" style="endArrow=none;html=1;rounded=0;exitX=0.5;exitY=0;exitDx=0;exitDy=0;entryX=0.5;entryY=1;entryDx=0;entryDy=0;" parent="1" source="0VB6fofLDIln-RIYnoBp-178" target="0VB6fofLDIln-RIYnoBp-173" edge="1">
          <mxGeometry relative="1" as="geometry">
            <mxPoint x="-1181" y="2145" as="sourcePoint" />
            <mxPoint x="-1131" y="2095" as="targetPoint" />
            <Array as="points">
              <mxPoint x="-1144" y="2000" />
            </Array>
          </mxGeometry>
        </mxCell>
        <mxCell id="0VB6fofLDIln-RIYnoBp-189" value="PERTENECER" style="shape=rhombus;perimeter=rhombusPerimeter;whiteSpace=wrap;html=1;align=center;" parent="1" vertex="1">
          <mxGeometry x="-1104" y="2030" width="105" height="70" as="geometry" />
        </mxCell>
        <mxCell id="0VB6fofLDIln-RIYnoBp-190" value="" style="endArrow=none;html=1;rounded=0;entryX=0.5;entryY=1;entryDx=0;entryDy=0;exitX=0.5;exitY=0;exitDx=0;exitDy=0;" parent="1" source="0VB6fofLDIln-RIYnoBp-189" target="0VB6fofLDIln-RIYnoBp-173" edge="1">
          <mxGeometry relative="1" as="geometry">
            <mxPoint x="-1281" y="2065" as="sourcePoint" />
            <mxPoint x="-1281" y="1990" as="targetPoint" />
            <Array as="points">
              <mxPoint x="-1052" y="2000" />
            </Array>
          </mxGeometry>
        </mxCell>
        <mxCell id="0VB6fofLDIln-RIYnoBp-191" value="N" style="resizable=0;html=1;whiteSpace=wrap;align=right;verticalAlign=bottom;" parent="0VB6fofLDIln-RIYnoBp-190" connectable="0" vertex="1">
          <mxGeometry x="1" relative="1" as="geometry">
            <mxPoint x="236" y="50" as="offset" />
          </mxGeometry>
        </mxCell>
        <mxCell id="0VB6fofLDIln-RIYnoBp-192" value="" style="endArrow=none;html=1;rounded=0;entryX=0.5;entryY=0;entryDx=0;entryDy=0;exitX=0.5;exitY=1;exitDx=0;exitDy=0;" parent="1" source="0VB6fofLDIln-RIYnoBp-189" target="Qqh80IMA2MNL4-B3lv8G-23" edge="1">
          <mxGeometry relative="1" as="geometry">
            <mxPoint x="-1341" y="2120" as="sourcePoint" />
            <mxPoint x="-1341" y="2160" as="targetPoint" />
          </mxGeometry>
        </mxCell>
        <mxCell id="0VB6fofLDIln-RIYnoBp-193" value="1" style="resizable=0;html=1;whiteSpace=wrap;align=right;verticalAlign=bottom;" parent="0VB6fofLDIln-RIYnoBp-192" connectable="0" vertex="1">
          <mxGeometry x="1" relative="1" as="geometry">
            <mxPoint x="-10" y="-2" as="offset" />
          </mxGeometry>
        </mxCell>
        <mxCell id="0VB6fofLDIln-RIYnoBp-195" value="CONTIENE" style="shape=rhombus;perimeter=rhombusPerimeter;whiteSpace=wrap;html=1;align=center;" parent="1" vertex="1">
          <mxGeometry x="-1439" y="1820" width="120" height="70" as="geometry" />
        </mxCell>
        <mxCell id="0VB6fofLDIln-RIYnoBp-196" value="" style="endArrow=none;html=1;rounded=0;entryX=0.5;entryY=1;entryDx=0;entryDy=0;exitX=0.5;exitY=0;exitDx=0;exitDy=0;" parent="1" source="0VB6fofLDIln-RIYnoBp-195" target="0VB6fofLDIln-RIYnoBp-60" edge="1">
          <mxGeometry relative="1" as="geometry">
            <mxPoint x="-1381.5" y="1860" as="sourcePoint" />
            <mxPoint x="-1581.5" y="1700" as="targetPoint" />
            <Array as="points">
              <mxPoint x="-1381.5" y="1720" />
            </Array>
          </mxGeometry>
        </mxCell>
        <mxCell id="0VB6fofLDIln-RIYnoBp-197" value="N" style="resizable=0;html=1;whiteSpace=wrap;align=right;verticalAlign=bottom;" parent="0VB6fofLDIln-RIYnoBp-196" connectable="0" vertex="1">
          <mxGeometry x="1" relative="1" as="geometry">
            <mxPoint x="-25" y="30" as="offset" />
          </mxGeometry>
        </mxCell>
        <mxCell id="0VB6fofLDIln-RIYnoBp-198" value="" style="endArrow=none;html=1;rounded=0;entryX=0.75;entryY=0;entryDx=0;entryDy=0;exitX=0.5;exitY=1;exitDx=0;exitDy=0;" parent="1" source="0VB6fofLDIln-RIYnoBp-195" target="0VB6fofLDIln-RIYnoBp-173" edge="1">
          <mxGeometry relative="1" as="geometry">
            <mxPoint x="-831" y="1490" as="sourcePoint" />
            <mxPoint x="-981" y="1490" as="targetPoint" />
            <Array as="points">
              <mxPoint x="-1251" y="1895" />
            </Array>
          </mxGeometry>
        </mxCell>
        <mxCell id="0VB6fofLDIln-RIYnoBp-199" value="1" style="resizable=0;html=1;whiteSpace=wrap;align=right;verticalAlign=bottom;" parent="0VB6fofLDIln-RIYnoBp-198" connectable="0" vertex="1">
          <mxGeometry x="1" relative="1" as="geometry">
            <mxPoint x="10" as="offset" />
          </mxGeometry>
        </mxCell>
        <mxCell id="0VB6fofLDIln-RIYnoBp-204" value="Proveedores" style="whiteSpace=wrap;html=1;align=center;" parent="1" vertex="1">
          <mxGeometry x="-2251" y="2147.14" width="130" height="40" as="geometry" />
        </mxCell>
        <mxCell id="0VB6fofLDIln-RIYnoBp-205" value="id_proveedor" style="ellipse;whiteSpace=wrap;html=1;align=center;fontStyle=4;" parent="1" vertex="1">
          <mxGeometry x="-2451" y="2237.14" width="100" height="40" as="geometry" />
        </mxCell>
        <mxCell id="0VB6fofLDIln-RIYnoBp-206" value="nombre" style="ellipse;whiteSpace=wrap;html=1;align=center;" parent="1" vertex="1">
          <mxGeometry x="-2341" y="2237.14" width="100" height="40" as="geometry" />
        </mxCell>
        <mxCell id="0VB6fofLDIln-RIYnoBp-207" value="telefono" style="ellipse;whiteSpace=wrap;html=1;align=center;" parent="1" vertex="1">
          <mxGeometry x="-2236" y="2237.14" width="100" height="40" as="geometry" />
        </mxCell>
        <mxCell id="0VB6fofLDIln-RIYnoBp-208" value="" style="endArrow=none;html=1;rounded=0;exitX=0.5;exitY=0;exitDx=0;exitDy=0;entryX=0.5;entryY=1;entryDx=0;entryDy=0;" parent="1" source="0VB6fofLDIln-RIYnoBp-205" target="0VB6fofLDIln-RIYnoBp-204" edge="1">
          <mxGeometry relative="1" as="geometry">
            <mxPoint x="-2389.33" y="2197.14" as="sourcePoint" />
            <mxPoint x="-2271" y="2177.14" as="targetPoint" />
            <Array as="points">
              <mxPoint x="-2401" y="2207.14" />
            </Array>
          </mxGeometry>
        </mxCell>
        <mxCell id="0VB6fofLDIln-RIYnoBp-209" value="" style="endArrow=none;html=1;rounded=0;entryX=0.5;entryY=1;entryDx=0;entryDy=0;exitX=0.5;exitY=0;exitDx=0;exitDy=0;" parent="1" source="0VB6fofLDIln-RIYnoBp-206" target="0VB6fofLDIln-RIYnoBp-204" edge="1">
          <mxGeometry relative="1" as="geometry">
            <mxPoint x="-2039.33" y="2127.14" as="sourcePoint" />
            <mxPoint x="-2149.33" y="2267.14" as="targetPoint" />
            <Array as="points">
              <mxPoint x="-2291" y="2217.14" />
            </Array>
          </mxGeometry>
        </mxCell>
        <mxCell id="0VB6fofLDIln-RIYnoBp-210" value="" style="endArrow=none;html=1;rounded=0;exitX=0.5;exitY=0;exitDx=0;exitDy=0;entryX=0.5;entryY=1;entryDx=0;entryDy=0;" parent="1" source="0VB6fofLDIln-RIYnoBp-207" target="0VB6fofLDIln-RIYnoBp-204" edge="1">
          <mxGeometry relative="1" as="geometry">
            <mxPoint x="-2289.33" y="2117.14" as="sourcePoint" />
            <mxPoint x="-2201" y="2207.14" as="targetPoint" />
          </mxGeometry>
        </mxCell>
        <mxCell id="0VB6fofLDIln-RIYnoBp-211" value="direccion" style="ellipse;whiteSpace=wrap;html=1;align=center;" parent="1" vertex="1">
          <mxGeometry x="-2131" y="2237.14" width="100" height="40" as="geometry" />
        </mxCell>
        <mxCell id="0VB6fofLDIln-RIYnoBp-212" value="tipo" style="ellipse;whiteSpace=wrap;html=1;align=center;" parent="1" vertex="1">
          <mxGeometry x="-2021" y="2237.14" width="100" height="40" as="geometry" />
        </mxCell>
        <mxCell id="0VB6fofLDIln-RIYnoBp-213" value="" style="endArrow=none;html=1;rounded=0;exitX=0.5;exitY=0;exitDx=0;exitDy=0;entryX=0.5;entryY=1;entryDx=0;entryDy=0;" parent="1" source="0VB6fofLDIln-RIYnoBp-211" target="0VB6fofLDIln-RIYnoBp-204" edge="1">
          <mxGeometry relative="1" as="geometry">
            <mxPoint x="-2069.33" y="2227.14" as="sourcePoint" />
            <mxPoint x="-2149.33" y="2177.14" as="targetPoint" />
            <Array as="points">
              <mxPoint x="-2081" y="2217.14" />
            </Array>
          </mxGeometry>
        </mxCell>
        <mxCell id="0VB6fofLDIln-RIYnoBp-214" value="" style="endArrow=none;html=1;rounded=0;exitX=0.5;exitY=0;exitDx=0;exitDy=0;entryX=0.5;entryY=1;entryDx=0;entryDy=0;" parent="1" source="0VB6fofLDIln-RIYnoBp-212" target="0VB6fofLDIln-RIYnoBp-204" edge="1">
          <mxGeometry relative="1" as="geometry">
            <mxPoint x="-2069.33" y="2287.14" as="sourcePoint" />
            <mxPoint x="-2061" y="2147.14" as="targetPoint" />
            <Array as="points">
              <mxPoint x="-1971" y="2207.14" />
            </Array>
          </mxGeometry>
        </mxCell>
        <mxCell id="0VB6fofLDIln-RIYnoBp-216" value="Ordenes_Compra" style="whiteSpace=wrap;html=1;align=center;" parent="1" vertex="1">
          <mxGeometry x="-1796.33" y="2147.14" width="200" height="40" as="geometry" />
        </mxCell>
        <mxCell id="0VB6fofLDIln-RIYnoBp-217" value="id_orden" style="ellipse;whiteSpace=wrap;html=1;align=center;fontStyle=4;" parent="1" vertex="1">
          <mxGeometry x="-1906" y="2237.14" width="100" height="40" as="geometry" />
        </mxCell>
        <mxCell id="0VB6fofLDIln-RIYnoBp-218" value="fecha" style="ellipse;whiteSpace=wrap;html=1;align=center;" parent="1" vertex="1">
          <mxGeometry x="-1796.33" y="2237.14" width="100" height="40" as="geometry" />
        </mxCell>
        <mxCell id="0VB6fofLDIln-RIYnoBp-219" value="estado" style="ellipse;whiteSpace=wrap;html=1;align=center;" parent="1" vertex="1">
          <mxGeometry x="-1686" y="2237.14" width="100" height="40" as="geometry" />
        </mxCell>
        <mxCell id="0VB6fofLDIln-RIYnoBp-220" value="" style="endArrow=none;html=1;rounded=0;exitX=0.5;exitY=0;exitDx=0;exitDy=0;entryX=0.5;entryY=1;entryDx=0;entryDy=0;" parent="1" source="0VB6fofLDIln-RIYnoBp-217" target="0VB6fofLDIln-RIYnoBp-216" edge="1">
          <mxGeometry relative="1" as="geometry">
            <mxPoint x="-1836" y="2202.14" as="sourcePoint" />
            <mxPoint x="-1606" y="2172.14" as="targetPoint" />
            <Array as="points">
              <mxPoint x="-1856" y="2201.14" />
            </Array>
          </mxGeometry>
        </mxCell>
        <mxCell id="0VB6fofLDIln-RIYnoBp-221" value="" style="endArrow=none;html=1;rounded=0;entryX=0.5;entryY=1;entryDx=0;entryDy=0;exitX=0.5;exitY=0;exitDx=0;exitDy=0;" parent="1" source="0VB6fofLDIln-RIYnoBp-218" target="0VB6fofLDIln-RIYnoBp-216" edge="1">
          <mxGeometry relative="1" as="geometry">
            <mxPoint x="-1486" y="2132.14" as="sourcePoint" />
            <mxPoint x="-1606" y="2172.14" as="targetPoint" />
            <Array as="points">
              <mxPoint x="-1746" y="2211.14" />
            </Array>
          </mxGeometry>
        </mxCell>
        <mxCell id="0VB6fofLDIln-RIYnoBp-222" value="" style="endArrow=none;html=1;rounded=0;exitX=0.5;exitY=0;exitDx=0;exitDy=0;entryX=0.5;entryY=1;entryDx=0;entryDy=0;" parent="1" source="0VB6fofLDIln-RIYnoBp-219" target="0VB6fofLDIln-RIYnoBp-216" edge="1">
          <mxGeometry relative="1" as="geometry">
            <mxPoint x="-1736" y="2122.14" as="sourcePoint" />
            <mxPoint x="-1606" y="2172.14" as="targetPoint" />
            <Array as="points">
              <mxPoint x="-1636" y="2211.14" />
            </Array>
          </mxGeometry>
        </mxCell>
        <mxCell id="0VB6fofLDIln-RIYnoBp-223" value="total" style="ellipse;whiteSpace=wrap;html=1;align=center;" parent="1" vertex="1">
          <mxGeometry x="-1576" y="2237.14" width="100" height="40" as="geometry" />
        </mxCell>
        <mxCell id="0VB6fofLDIln-RIYnoBp-224" value="" style="endArrow=none;html=1;rounded=0;exitX=0.5;exitY=0;exitDx=0;exitDy=0;entryX=0.5;entryY=1;entryDx=0;entryDy=0;" parent="1" source="0VB6fofLDIln-RIYnoBp-223" target="0VB6fofLDIln-RIYnoBp-216" edge="1">
          <mxGeometry relative="1" as="geometry">
            <mxPoint x="-1516" y="2232.14" as="sourcePoint" />
            <mxPoint x="-1606" y="2172.14" as="targetPoint" />
            <Array as="points">
              <mxPoint x="-1526" y="2201.14" />
            </Array>
          </mxGeometry>
        </mxCell>
        <mxCell id="0VB6fofLDIln-RIYnoBp-225" value="Ingredientes" style="whiteSpace=wrap;html=1;align=center;" parent="1" vertex="1">
          <mxGeometry x="-2155" y="1925" width="160" height="40" as="geometry" />
        </mxCell>
        <mxCell id="0VB6fofLDIln-RIYnoBp-226" value="id_ingrediente" style="ellipse;whiteSpace=wrap;html=1;align=center;fontStyle=4;" parent="1" vertex="1">
          <mxGeometry x="-2390" y="1997" width="100" height="40" as="geometry" />
        </mxCell>
        <mxCell id="0VB6fofLDIln-RIYnoBp-227" value="nombre" style="ellipse;whiteSpace=wrap;html=1;align=center;" parent="1" vertex="1">
          <mxGeometry x="-2280" y="1997" width="100" height="40" as="geometry" />
        </mxCell>
        <mxCell id="0VB6fofLDIln-RIYnoBp-228" value="cantida_actual" style="ellipse;whiteSpace=wrap;html=1;align=center;" parent="1" vertex="1">
          <mxGeometry x="-2170" y="2000" width="100" height="40" as="geometry" />
        </mxCell>
        <mxCell id="0VB6fofLDIln-RIYnoBp-229" value="unidad_medida" style="ellipse;whiteSpace=wrap;html=1;align=center;" parent="1" vertex="1">
          <mxGeometry x="-2020" y="1997" width="100" height="40" as="geometry" />
        </mxCell>
        <mxCell id="0VB6fofLDIln-RIYnoBp-230" value="stock_minimo" style="ellipse;whiteSpace=wrap;html=1;align=center;" parent="1" vertex="1">
          <mxGeometry x="-1910" y="1997" width="100" height="40" as="geometry" />
        </mxCell>
        <mxCell id="0VB6fofLDIln-RIYnoBp-231" value="" style="endArrow=none;html=1;rounded=0;exitX=0.5;exitY=0;exitDx=0;exitDy=0;entryX=0.5;entryY=1;entryDx=0;entryDy=0;" parent="1" source="0VB6fofLDIln-RIYnoBp-226" target="0VB6fofLDIln-RIYnoBp-225" edge="1">
          <mxGeometry relative="1" as="geometry">
            <mxPoint x="-2295" y="1965" as="sourcePoint" />
            <mxPoint x="-2135" y="1965" as="targetPoint" />
            <Array as="points">
              <mxPoint x="-2340" y="1977" />
            </Array>
          </mxGeometry>
        </mxCell>
        <mxCell id="0VB6fofLDIln-RIYnoBp-232" value="" style="endArrow=none;html=1;rounded=0;exitX=0.5;exitY=0;exitDx=0;exitDy=0;entryX=0.5;entryY=1;entryDx=0;entryDy=0;" parent="1" source="0VB6fofLDIln-RIYnoBp-227" target="0VB6fofLDIln-RIYnoBp-225" edge="1">
          <mxGeometry relative="1" as="geometry">
            <mxPoint x="-2195" y="1825" as="sourcePoint" />
            <mxPoint x="-2145" y="1955" as="targetPoint" />
            <Array as="points">
              <mxPoint x="-2230" y="1980" />
            </Array>
          </mxGeometry>
        </mxCell>
        <mxCell id="0VB6fofLDIln-RIYnoBp-233" value="" style="endArrow=none;html=1;rounded=0;exitX=0.5;exitY=0;exitDx=0;exitDy=0;entryX=0.5;entryY=1;entryDx=0;entryDy=0;" parent="1" source="0VB6fofLDIln-RIYnoBp-228" target="0VB6fofLDIln-RIYnoBp-225" edge="1">
          <mxGeometry relative="1" as="geometry">
            <mxPoint x="-2195" y="1885" as="sourcePoint" />
            <mxPoint x="-2145" y="1955" as="targetPoint" />
            <Array as="points">
              <mxPoint x="-2120" y="1980" />
            </Array>
          </mxGeometry>
        </mxCell>
        <mxCell id="0VB6fofLDIln-RIYnoBp-234" value="" style="endArrow=none;html=1;rounded=0;exitX=0.5;exitY=0;exitDx=0;exitDy=0;entryX=0.5;entryY=1;entryDx=0;entryDy=0;" parent="1" source="0VB6fofLDIln-RIYnoBp-229" target="0VB6fofLDIln-RIYnoBp-225" edge="1">
          <mxGeometry relative="1" as="geometry">
            <mxPoint x="-2195" y="1945" as="sourcePoint" />
            <mxPoint x="-2145" y="1955" as="targetPoint" />
            <Array as="points">
              <mxPoint x="-1970" y="1980" />
            </Array>
          </mxGeometry>
        </mxCell>
        <mxCell id="0VB6fofLDIln-RIYnoBp-235" value="" style="endArrow=none;html=1;rounded=0;exitX=0.5;exitY=0;exitDx=0;exitDy=0;entryX=0.5;entryY=1;entryDx=0;entryDy=0;" parent="1" source="0VB6fofLDIln-RIYnoBp-230" target="0VB6fofLDIln-RIYnoBp-225" edge="1">
          <mxGeometry relative="1" as="geometry">
            <mxPoint x="-2195" y="2005" as="sourcePoint" />
            <mxPoint x="-2145" y="1955" as="targetPoint" />
            <Array as="points">
              <mxPoint x="-1860" y="1980" />
            </Array>
          </mxGeometry>
        </mxCell>
        <mxCell id="0VB6fofLDIln-RIYnoBp-239" value="" style="endArrow=none;html=1;rounded=0;exitX=0.5;exitY=1;exitDx=0;exitDy=0;entryX=0.5;entryY=0;entryDx=0;entryDy=0;" parent="1" source="0VB6fofLDIln-RIYnoBp-82" target="0VB6fofLDIln-RIYnoBp-39" edge="1">
          <mxGeometry relative="1" as="geometry">
            <mxPoint x="-1191" y="1370" as="sourcePoint" />
            <mxPoint x="-1191" y="1420" as="targetPoint" />
            <Array as="points" />
          </mxGeometry>
        </mxCell>
        <mxCell id="0VB6fofLDIln-RIYnoBp-240" value="N" style="resizable=0;html=1;whiteSpace=wrap;align=right;verticalAlign=bottom;" parent="0VB6fofLDIln-RIYnoBp-239" connectable="0" vertex="1">
          <mxGeometry x="1" relative="1" as="geometry">
            <mxPoint x="-10" as="offset" />
          </mxGeometry>
        </mxCell>
        <mxCell id="0VB6fofLDIln-RIYnoBp-248" value="" style="endArrow=none;html=1;rounded=0;entryX=0.5;entryY=1;entryDx=0;entryDy=0;exitX=0;exitY=0.5;exitDx=0;exitDy=0;" parent="1" source="0VB6fofLDIln-RIYnoBp-82" target="0VB6fofLDIln-RIYnoBp-81" edge="1">
          <mxGeometry relative="1" as="geometry">
            <mxPoint x="-1921" y="1410" as="sourcePoint" />
            <mxPoint x="-1391" y="1370" as="targetPoint" />
            <Array as="points">
              <mxPoint x="-1660" y="1370" />
            </Array>
          </mxGeometry>
        </mxCell>
        <mxCell id="0VB6fofLDIln-RIYnoBp-249" value="1" style="resizable=0;html=1;whiteSpace=wrap;align=right;verticalAlign=bottom;" parent="0VB6fofLDIln-RIYnoBp-248" connectable="0" vertex="1">
          <mxGeometry x="1" relative="1" as="geometry">
            <mxPoint x="40" y="20" as="offset" />
          </mxGeometry>
        </mxCell>
        <mxCell id="0VB6fofLDIln-RIYnoBp-250" value="EMITEN" style="shape=rhombus;perimeter=rhombusPerimeter;whiteSpace=wrap;html=1;align=center;" parent="1" vertex="1">
          <mxGeometry x="-1966" y="2132.2799999999997" width="105" height="70" as="geometry" />
        </mxCell>
        <mxCell id="0VB6fofLDIln-RIYnoBp-251" value="COMPONEN" style="shape=rhombus;perimeter=rhombusPerimeter;whiteSpace=wrap;html=1;align=center;" parent="1" vertex="1">
          <mxGeometry x="-1748.83" y="1910" width="105" height="70" as="geometry" />
        </mxCell>
        <mxCell id="0VB6fofLDIln-RIYnoBp-252" value="" style="endArrow=none;html=1;rounded=0;entryX=0;entryY=0.5;entryDx=0;entryDy=0;" parent="1" source="0VB6fofLDIln-RIYnoBp-251" target="0VB6fofLDIln-RIYnoBp-173" edge="1">
          <mxGeometry relative="1" as="geometry">
            <mxPoint x="-1591" y="1944.4699999999998" as="sourcePoint" />
            <mxPoint x="-1431" y="1944.4699999999998" as="targetPoint" />
          </mxGeometry>
        </mxCell>
        <mxCell id="0VB6fofLDIln-RIYnoBp-253" value="M" style="resizable=0;html=1;whiteSpace=wrap;align=left;verticalAlign=bottom;" parent="0VB6fofLDIln-RIYnoBp-252" connectable="0" vertex="1">
          <mxGeometry x="-1" relative="1" as="geometry" />
        </mxCell>
        <mxCell id="0VB6fofLDIln-RIYnoBp-254" value="N" style="resizable=0;html=1;whiteSpace=wrap;align=right;verticalAlign=bottom;" parent="0VB6fofLDIln-RIYnoBp-252" connectable="0" vertex="1">
          <mxGeometry x="1" relative="1" as="geometry" />
        </mxCell>
        <mxCell id="0VB6fofLDIln-RIYnoBp-255" value="" style="endArrow=none;html=1;rounded=0;entryX=0;entryY=0.5;entryDx=0;entryDy=0;exitX=1;exitY=0.5;exitDx=0;exitDy=0;" parent="1" source="0VB6fofLDIln-RIYnoBp-225" target="0VB6fofLDIln-RIYnoBp-251" edge="1">
          <mxGeometry relative="1" as="geometry">
            <mxPoint x="-2130" y="1950" as="sourcePoint" />
            <mxPoint x="-1820" y="1945" as="targetPoint" />
          </mxGeometry>
        </mxCell>
        <mxCell id="0VB6fofLDIln-RIYnoBp-256" value="M" style="resizable=0;html=1;whiteSpace=wrap;align=left;verticalAlign=bottom;" parent="0VB6fofLDIln-RIYnoBp-255" connectable="0" vertex="1">
          <mxGeometry x="-1" relative="1" as="geometry" />
        </mxCell>
        <mxCell id="0VB6fofLDIln-RIYnoBp-257" value="N" style="resizable=0;html=1;whiteSpace=wrap;align=right;verticalAlign=bottom;" parent="0VB6fofLDIln-RIYnoBp-255" connectable="0" vertex="1">
          <mxGeometry x="1" relative="1" as="geometry" />
        </mxCell>
        <mxCell id="0VB6fofLDIln-RIYnoBp-258" value="ABASTECE" style="shape=rhombus;perimeter=rhombusPerimeter;whiteSpace=wrap;html=1;align=center;" parent="1" vertex="1">
          <mxGeometry x="-2092.5" y="2030" width="105" height="70" as="geometry" />
        </mxCell>
        <mxCell id="0VB6fofLDIln-RIYnoBp-259" value="" style="endArrow=none;html=1;rounded=0;entryX=0.5;entryY=0;entryDx=0;entryDy=0;exitX=0.5;exitY=1;exitDx=0;exitDy=0;" parent="1" source="0VB6fofLDIln-RIYnoBp-258" target="0VB6fofLDIln-RIYnoBp-216" edge="1">
          <mxGeometry relative="1" as="geometry">
            <mxPoint x="-1663.5" y="2080" as="sourcePoint" />
            <mxPoint x="-1776" y="1921.17" as="targetPoint" />
            <Array as="points">
              <mxPoint x="-1696" y="2100" />
            </Array>
          </mxGeometry>
        </mxCell>
        <mxCell id="0VB6fofLDIln-RIYnoBp-260" value="M" style="resizable=0;html=1;whiteSpace=wrap;align=left;verticalAlign=bottom;" parent="0VB6fofLDIln-RIYnoBp-259" connectable="0" vertex="1">
          <mxGeometry x="-1" relative="1" as="geometry">
            <mxPoint y="15" as="offset" />
          </mxGeometry>
        </mxCell>
        <mxCell id="0VB6fofLDIln-RIYnoBp-261" value="N" style="resizable=0;html=1;whiteSpace=wrap;align=right;verticalAlign=bottom;" parent="0VB6fofLDIln-RIYnoBp-259" connectable="0" vertex="1">
          <mxGeometry x="1" relative="1" as="geometry">
            <mxPoint as="offset" />
          </mxGeometry>
        </mxCell>
        <mxCell id="0VB6fofLDIln-RIYnoBp-263" value="" style="endArrow=none;html=1;rounded=0;entryX=0.5;entryY=0;entryDx=0;entryDy=0;exitX=0.5;exitY=1;exitDx=0;exitDy=0;" parent="1" source="0VB6fofLDIln-RIYnoBp-225" target="0VB6fofLDIln-RIYnoBp-258" edge="1">
          <mxGeometry relative="1" as="geometry">
            <mxPoint x="-2045" y="1983" as="sourcePoint" />
            <mxPoint x="-2045" y="2040" as="targetPoint" />
            <Array as="points">
              <mxPoint x="-2040" y="1980" />
            </Array>
          </mxGeometry>
        </mxCell>
        <mxCell id="0VB6fofLDIln-RIYnoBp-264" value="M" style="resizable=0;html=1;whiteSpace=wrap;align=left;verticalAlign=bottom;" parent="0VB6fofLDIln-RIYnoBp-263" connectable="0" vertex="1">
          <mxGeometry x="-1" relative="1" as="geometry">
            <mxPoint x="5" y="25" as="offset" />
          </mxGeometry>
        </mxCell>
        <mxCell id="0VB6fofLDIln-RIYnoBp-265" value="N" style="resizable=0;html=1;whiteSpace=wrap;align=right;verticalAlign=bottom;" parent="0VB6fofLDIln-RIYnoBp-263" connectable="0" vertex="1">
          <mxGeometry x="1" relative="1" as="geometry">
            <mxPoint as="offset" />
          </mxGeometry>
        </mxCell>
        <mxCell id="0VB6fofLDIln-RIYnoBp-268" value="" style="endArrow=none;html=1;rounded=0;exitX=0;exitY=0.5;exitDx=0;exitDy=0;entryX=1;entryY=0.5;entryDx=0;entryDy=0;" parent="1" source="0VB6fofLDIln-RIYnoBp-250" target="0VB6fofLDIln-RIYnoBp-204" edge="1">
          <mxGeometry relative="1" as="geometry">
            <mxPoint x="-2001" y="2169.6899999999996" as="sourcePoint" />
            <mxPoint x="-2110" y="2169.41" as="targetPoint" />
            <Array as="points" />
          </mxGeometry>
        </mxCell>
        <mxCell id="0VB6fofLDIln-RIYnoBp-269" value="1" style="resizable=0;html=1;whiteSpace=wrap;align=right;verticalAlign=bottom;" parent="0VB6fofLDIln-RIYnoBp-268" connectable="0" vertex="1">
          <mxGeometry x="1" relative="1" as="geometry">
            <mxPoint x="10" as="offset" />
          </mxGeometry>
        </mxCell>
        <mxCell id="0VB6fofLDIln-RIYnoBp-270" value="" style="endArrow=none;html=1;rounded=0;exitX=1;exitY=0.5;exitDx=0;exitDy=0;entryX=0;entryY=0.5;entryDx=0;entryDy=0;" parent="1" source="0VB6fofLDIln-RIYnoBp-250" target="0VB6fofLDIln-RIYnoBp-216" edge="1">
          <mxGeometry relative="1" as="geometry">
            <mxPoint x="-2346" y="2100" as="sourcePoint" />
            <mxPoint x="-2346" y="1910" as="targetPoint" />
            <Array as="points" />
          </mxGeometry>
        </mxCell>
        <mxCell id="0VB6fofLDIln-RIYnoBp-271" value="N" style="resizable=0;html=1;whiteSpace=wrap;align=right;verticalAlign=bottom;" parent="0VB6fofLDIln-RIYnoBp-270" connectable="0" vertex="1">
          <mxGeometry x="1" relative="1" as="geometry">
            <mxPoint x="-5" y="3" as="offset" />
          </mxGeometry>
        </mxCell>
      </root>
    </mxGraphModel>
  </diagram>
</mxfile>
